<svg width="160" height="160" viewBox="0 0 160 160" fill="none" xmlns="http://www.w3.org/2000/svg">
<rect width="160" height="160" rx="16" fill="#E8E8E8"/>
<path d="M32.7 133C29.4825 133 26.7281 131.858 24.4369 129.573C22.1456 127.288 21 124.542 21 121.333V28L30.7987 37.7708L40.4512 28L50.25 37.7708L60.0487 28L69.7012 37.7708L79.5 28L89.2987 37.7708L98.9512 28L108.75 37.7708L118.549 28L128.201 37.7708L138 28V121.333C138 124.542 136.854 127.288 134.563 129.573C132.272 131.858 129.517 133 126.3 133H32.7ZM32.7 121.333H73.65V86.3333H32.7V121.333ZM85.35 121.333H126.3V109.667H85.35V121.333ZM85.35 98H126.3V86.3333H85.35V98ZM32.7 74.6667H126.3V57.1667H32.7V74.6667Z" fill="black"/>
</svg>
